<svg width="24" height="24" viewBox="0 0 24 24" fill="none" xmlns="http://www.w3.org/2000/svg">
  <path fill-rule="evenodd" clip-rule="evenodd"
    d="M19.0001 11.0002C19.2653 11.0002 19.5196 11.1055 19.7071 11.293C19.8947 11.4805 20 11.7348 20 12C20 12.2652 19.8947 12.5195 19.7071 12.707C19.5196 12.8945 19.2653 12.9998 19.0001 12.9998H7.41541L11.7089 17.291C11.8019 17.384 11.8756 17.4944 11.9259 17.6158C11.9763 17.7373 12.0022 17.8675 12.0022 17.9989C12.0022 18.1304 11.9763 18.2606 11.9259 18.382C11.8756 18.5035 11.8019 18.6138 11.7089 18.7068C11.616 18.7997 11.5056 18.8735 11.3841 18.9238C11.2627 18.9741 11.1325 19 11.001 19C10.8695 19 10.7393 18.9741 10.6179 18.9238C10.4964 18.8735 10.386 18.7997 10.2931 18.7068L4.29375 12.7079C4.20064 12.615 4.12676 12.5047 4.07635 12.3832C4.02595 12.2617 4 12.1315 4 12C4 11.8685 4.02595 11.7383 4.07635 11.6168C4.12676 11.4953 4.20064 11.385 4.29375 11.2921L10.2931 5.29321C10.4808 5.10547 10.7355 5 11.001 5C11.2665 5 11.5212 5.10547 11.7089 5.29321C11.8967 5.48095 12.0022 5.73558 12.0022 6.00108C12.0022 6.26659 11.8967 6.52122 11.7089 6.70896L7.41541 11.0002H19.0001Z"
    fill="#1d1d1f" />
</svg>