<svg xmlns="http://www.w3.org/2000/svg" width="1232" height="212" viewBox="0 0 1232 212" fill="none">
  <g filter="url(#filter0_bd_10008_14434)">
    <path
      d="M8 23C8 14.7157 14.7157 8 23 8H1209C1217.28 8 1224 14.7157 1224 23V189C1224 197.284 1217.28 204 1209 204H23C14.7157 204 8 197.284 8 189V23Z"
      fill="url(#paint0_linear_10008_14434)" />
    <path
      d="M8.5 23C8.5 14.9919 14.9919 8.5 23 8.5H1209C1217.01 8.5 1223.5 14.9919 1223.5 23V189C1223.5 197.008 1217.01 203.5 1209 203.5H23C14.9919 203.5 8.5 197.008 8.5 189V23Z"
      stroke="url(#paint1_linear_10008_14434)" />
  </g>
  <defs>
    <filter id="filter0_bd_10008_14434" x="-24" y="-24" width="1280" height="260" filterUnits="userSpaceOnUse"
      color-interpolation-filters="sRGB">
      <feFlood flood-opacity="0" result="BackgroundImageFix" />
      <feGaussianBlur in="BackgroundImageFix" stdDeviation="16" />
      <feComposite in2="SourceAlpha" operator="in" result="effect1_backgroundBlur_10008_14434" />
      <feColorMatrix in="SourceAlpha" type="matrix" values="0 0 0 0 0 0 0 0 0 0 0 0 0 0 0 0 0 0 127 0"
        result="hardAlpha" />
      <feOffset />
      <feGaussianBlur stdDeviation="4" />
      <feComposite in2="hardAlpha" operator="out" />
      <feColorMatrix type="matrix" values="0 0 0 0 0.00472127 0 0 0 0 0.0805394 0 0 0 0 0.188851 0 0 0 0.12 0" />
      <feBlend mode="normal" in2="effect1_backgroundBlur_10008_14434" result="effect2_dropShadow_10008_14434" />
      <feBlend mode="normal" in="SourceGraphic" in2="effect2_dropShadow_10008_14434" result="shape" />
    </filter>
    <linearGradient id="paint0_linear_10008_14434" x1="8" y1="8" x2="90.8283" y2="427.656"
      gradientUnits="userSpaceOnUse">
      <stop stop-color="#175675" />
      <stop offset="1" stop-color="#607460" />
    </linearGradient>
    <linearGradient id="paint1_linear_10008_14434" x1="8" y1="8" x2="841.133" y2="679.222"
      gradientUnits="userSpaceOnUse">
      <stop stop-color="#081623" />
      <stop offset="1" stop-color="#36555C" />
    </linearGradient>
  </defs>
</svg>