<svg width="22" height="22" viewBox="0 0 22 22" fill="none" xmlns="http://www.w3.org/2000/svg">
  <g clip-path="url(#clip0_10251_1990)">
    <path
      d="M6.41667 0H3.66667C2.69421 0 1.76158 0.386309 1.07394 1.07394C0.386309 1.76158 0 2.69421 0 3.66667L0 6.41667C0 7.38913 0.386309 8.32176 1.07394 9.00939C1.76158 9.69703 2.69421 10.0833 3.66667 10.0833H6.41667C7.38913 10.0833 8.32176 9.69703 9.00939 9.00939C9.69703 8.32176 10.0833 7.38913 10.0833 6.41667V3.66667C10.0833 2.69421 9.69703 1.76158 9.00939 1.07394C8.32176 0.386309 7.38913 0 6.41667 0ZM8.25 6.41667C8.25 6.9029 8.05685 7.36921 7.71303 7.71303C7.36921 8.05685 6.9029 8.25 6.41667 8.25H3.66667C3.18044 8.25 2.71412 8.05685 2.3703 7.71303C2.02649 7.36921 1.83333 6.9029 1.83333 6.41667V3.66667C1.83333 3.18044 2.02649 2.71412 2.3703 2.3703C2.71412 2.02649 3.18044 1.83333 3.66667 1.83333H6.41667C6.9029 1.83333 7.36921 2.02649 7.71303 2.3703C8.05685 2.71412 8.25 3.18044 8.25 3.66667V6.41667Z"
      fill="#86868B" />
    <path
      d="M18.3334 0H15.5834C14.611 0 13.6783 0.386309 12.9907 1.07394C12.3031 1.76158 11.9167 2.69421 11.9167 3.66667V6.41667C11.9167 7.38913 12.3031 8.32176 12.9907 9.00939C13.6783 9.69703 14.611 10.0833 15.5834 10.0833H18.3334C19.3059 10.0833 20.2385 9.69703 20.9261 9.00939C21.6138 8.32176 22.0001 7.38913 22.0001 6.41667V3.66667C22.0001 2.69421 21.6138 1.76158 20.9261 1.07394C20.2385 0.386309 19.3059 0 18.3334 0ZM20.1667 6.41667C20.1667 6.9029 19.9736 7.36921 19.6298 7.71303C19.286 8.05685 18.8196 8.25 18.3334 8.25H15.5834C15.0972 8.25 14.6309 8.05685 14.2871 7.71303C13.9432 7.36921 13.7501 6.9029 13.7501 6.41667V3.66667C13.7501 3.18044 13.9432 2.71412 14.2871 2.3703C14.6309 2.02649 15.0972 1.83333 15.5834 1.83333H18.3334C18.8196 1.83333 19.286 2.02649 19.6298 2.3703C19.9736 2.71412 20.1667 3.18044 20.1667 3.66667V6.41667Z"
      fill="#86868B" />
    <path
      d="M6.41667 11.916H3.66667C2.69421 11.916 1.76158 12.3023 1.07394 12.99C0.386309 13.6776 0 14.6102 0 15.5827L0 18.3327C0 19.3051 0.386309 20.2378 1.07394 20.9254C1.76158 21.613 2.69421 21.9993 3.66667 21.9993H6.41667C7.38913 21.9993 8.32176 21.613 9.00939 20.9254C9.69703 20.2378 10.0833 19.3051 10.0833 18.3327V15.5827C10.0833 14.6102 9.69703 13.6776 9.00939 12.99C8.32176 12.3023 7.38913 11.916 6.41667 11.916ZM8.25 18.3327C8.25 18.8189 8.05685 19.2852 7.71303 19.629C7.36921 19.9729 6.9029 20.166 6.41667 20.166H3.66667C3.18044 20.166 2.71412 19.9729 2.3703 19.629C2.02649 19.2852 1.83333 18.8189 1.83333 18.3327V15.5827C1.83333 15.0965 2.02649 14.6301 2.3703 14.2863C2.71412 13.9425 3.18044 13.7493 3.66667 13.7493H6.41667C6.9029 13.7493 7.36921 13.9425 7.71303 14.2863C8.05685 14.6301 8.25 15.0965 8.25 15.5827V18.3327Z"
      fill="#86868B" />
    <path
      d="M18.3334 11.916H15.5834C14.611 11.916 13.6783 12.3023 12.9907 12.99C12.3031 13.6776 11.9167 14.6102 11.9167 15.5827V18.3327C11.9167 19.3051 12.3031 20.2378 12.9907 20.9254C13.6783 21.613 14.611 21.9993 15.5834 21.9993H18.3334C19.3059 21.9993 20.2385 21.613 20.9261 20.9254C21.6138 20.2378 22.0001 19.3051 22.0001 18.3327V15.5827C22.0001 14.6102 21.6138 13.6776 20.9261 12.99C20.2385 12.3023 19.3059 11.916 18.3334 11.916ZM20.1667 18.3327C20.1667 18.8189 19.9736 19.2852 19.6298 19.629C19.286 19.9729 18.8196 20.166 18.3334 20.166H15.5834C15.0972 20.166 14.6309 19.9729 14.2871 19.629C13.9432 19.2852 13.7501 18.8189 13.7501 18.3327V15.5827C13.7501 15.0965 13.9432 14.6301 14.2871 14.2863C14.6309 13.9425 15.0972 13.7493 15.5834 13.7493H18.3334C18.8196 13.7493 19.286 13.9425 19.6298 14.2863C19.9736 14.6301 20.1667 15.0965 20.1667 15.5827V18.3327Z"
      fill="#86868B" />
  </g>
  <defs>
    <clipPath id="clip0_10251_1990">
      <rect width="22" height="22" fill="white" />
    </clipPath>
  </defs>
</svg>