<svg width="23" height="22" viewBox="0 0 23 22" fill="none" xmlns="http://www.w3.org/2000/svg">
  <path d="M18.1543 15.2653C17.3796 15.2653 16.6646 15.5459 16.1046 16.0145L10.4721 11.8082C10.5664 11.2738 10.5664 10.7262 10.4721 10.1918L16.1046 5.98546C16.6646 6.45408 17.3796 6.73469 18.1543 6.73469C19.9539 6.73469 21.4165 5.225 21.4165 3.36735C21.4165 1.50969 19.9539 0 18.1543 0C16.3547 0 14.8922 1.50969 14.8922 3.36735C14.8922 3.69286 14.9357 4.00434 15.02 4.30179L9.67011 8.30051C8.87633 7.21454 7.61498 6.5102 6.19324 6.5102C3.79015 6.5102 1.84375 8.51939 1.84375 11C1.84375 13.4806 3.79015 15.4898 6.19324 15.4898C7.61498 15.4898 8.87633 14.7855 9.67011 13.6995L15.02 17.6982C14.9357 17.9957 14.8922 18.3099 14.8922 18.6327C14.8922 20.4903 16.3547 22 18.1543 22C19.9539 22 21.4165 20.4903 21.4165 18.6327C21.4165 16.775 19.9539 15.2653 18.1543 15.2653ZM18.1543 1.90816C18.9345 1.90816 19.5679 2.56199 19.5679 3.36735C19.5679 4.1727 18.9345 4.82653 18.1543 4.82653C17.3741 4.82653 16.7408 4.1727 16.7408 3.36735C16.7408 2.56199 17.3741 1.90816 18.1543 1.90816ZM6.19324 13.4694C4.8748 13.4694 3.80102 12.361 3.80102 11C3.80102 9.63903 4.8748 8.53061 6.19324 8.53061C7.51168 8.53061 8.58546 9.63903 8.58546 11C8.58546 12.361 7.51168 13.4694 6.19324 13.4694ZM18.1543 20.0918C17.3741 20.0918 16.7408 19.438 16.7408 18.6327C16.7408 17.8273 17.3741 17.1735 18.1543 17.1735C18.9345 17.1735 19.5679 17.8273 19.5679 18.6327C19.5679 19.438 18.9345 20.0918 18.1543 20.0918Z" fill="#86868B"/>
</svg>
