<svg width="22" height="22" viewBox="0 0 22 22" fill="none" xmlns="http://www.w3.org/2000/svg">
  <g clip-path="url(#clip0_10251_1978)">
    <path
      d="M11 22C4.93442 22 0 17.0656 0 11C0 4.93442 4.93442 0 11 0C17.0656 0 22 4.93442 22 11C22 17.0656 17.0656 22 11 22ZM11 2.75C6.4515 2.75 2.75 6.45058 2.75 11C2.75 15.5494 6.4515 19.25 11 19.25C15.5485 19.25 19.25 15.5494 19.25 11C19.25 6.45058 15.5494 2.75 11 2.75ZM15.5833 11.4583C15.5833 10.6993 14.9673 10.0833 14.2083 10.0833H11.9167V5.95833C11.9167 5.19933 11.3016 4.58333 10.5417 4.58333C9.78175 4.58333 9.16667 5.19933 9.16667 5.95833V11.4583C9.16667 12.2173 9.78175 12.8333 10.5417 12.8333H14.2083C14.9673 12.8333 15.5833 12.2173 15.5833 11.4583Z"
      fill="#86868B" />
  </g>
  <defs>
    <clipPath id="clip0_10251_1978">
      <rect width="22" height="22" fill="white" />
    </clipPath>
  </defs>
</svg>